<svg width="36" height="35" viewBox="0 0 36 35" fill="none" xmlns="http://www.w3.org/2000/svg">
<g id="Navigation / House_01">
<path id="Vector" d="M29.2889 24.7919V16.7012C29.2889 15.9219 29.2882 15.5321 29.1935 15.1695C29.1095 14.8481 28.9717 14.5441 28.7851 14.2693C28.5746 13.9592 28.282 13.702 27.6956 13.1889L20.6956 7.06391C19.6067 6.11121 19.0623 5.63509 18.4497 5.45391C17.9098 5.29425 17.3344 5.29425 16.7945 5.45391C16.1823 5.63496 15.6387 6.11062 14.5515 7.06189L7.54919 13.1889C6.96275 13.7021 6.67021 13.9592 6.45972 14.2693C6.27318 14.5441 6.13428 14.8481 6.05032 15.1695C5.95557 15.5321 5.95557 15.9219 5.95557 16.7012V24.7919C5.95557 26.1509 5.95557 26.8301 6.17758 27.3661C6.47361 28.0808 7.04103 28.6493 7.7557 28.9453C8.2917 29.1673 8.97119 29.1673 10.3302 29.1673C11.6892 29.1673 12.3694 29.1673 12.9054 28.9453C13.6201 28.6493 14.1874 28.0809 14.4834 27.3663C14.7054 26.8303 14.7056 26.1508 14.7056 24.7918V23.3334C14.7056 21.7226 16.0114 20.4168 17.6222 20.4168C19.2331 20.4168 20.5389 21.7226 20.5389 23.3334V24.7918C20.5389 26.1508 20.5389 26.8303 20.7609 27.3663C21.0569 28.0809 21.6244 28.6493 22.339 28.9453C22.875 29.1673 23.5545 29.1673 24.9135 29.1673C26.2725 29.1673 26.9528 29.1673 27.4888 28.9453C28.2034 28.6493 28.7707 28.0808 29.0667 27.3661C29.2887 26.8301 29.2889 26.1509 29.2889 24.7919Z" stroke="white" stroke-width="4" stroke-linecap="round" stroke-linejoin="round"/>
</g>
</svg>
