<svg width="35" height="34" viewBox="0 0 35 34" fill="none" xmlns="http://www.w3.org/2000/svg">
<g id="Navigation / Globe">
<path id="Vector" d="M4.37207 17H11.4554M4.37207 17C4.37207 24.0416 10.0804 29.75 17.1221 29.75M4.37207 17C4.37207 9.95837 10.0804 4.25 17.1221 4.25M11.4554 17H22.7887M11.4554 17C11.4554 24.0416 13.9925 29.75 17.1221 29.75M11.4554 17C11.4554 9.95837 13.9925 4.25 17.1221 4.25M22.7887 17H29.8721M22.7887 17C22.7887 9.95837 20.2517 4.25 17.1221 4.25M22.7887 17C22.7887 24.0416 20.2517 29.75 17.1221 29.75M29.8721 17C29.8721 9.95837 24.1637 4.25 17.1221 4.25M29.8721 17C29.8721 24.0416 24.1637 29.75 17.1221 29.75" stroke="white" stroke-width="2" stroke-linecap="round" stroke-linejoin="round"/>
</g>
</svg>
